# Blender v2.73 (sub 0) OBJ File: 'sign.blend'
# www.blender.org
v -0.281585 -0.001051 -0.021899
v -0.262277 -0.001051 -0.021899
v -0.262277 -0.001051 -0.002591
v -0.281585 -0.001051 -0.002591
v -0.281585 0.745699 -0.021899
v -0.262277 0.745699 -0.021899
v -0.262277 0.745699 -0.002591
v -0.281585 0.745699 -0.002591
v 0.262277 -0.001051 -0.021899
v 0.281584 -0.001051 -0.021899
v 0.281584 -0.001051 -0.002591
v 0.262277 -0.001051 -0.002591
v 0.262277 0.745699 -0.021899
v 0.281584 0.745699 -0.021899
v 0.281584 0.745699 -0.002591
v 0.262277 0.745699 -0.002591
v -0.466974 0.010771 -0.002439
v -0.500011 0.035065 -0.002439
v -0.475525 0.011599 -0.002439
v -0.483492 0.014026 -0.002439
v -0.490335 0.017887 -0.002439
v -0.495585 0.022918 -0.002439
v -0.498885 0.028777 -0.002439
v 0.500011 0.035065 -0.002439
v 0.466974 0.010771 -0.002439
v 0.498885 0.028777 -0.002439
v 0.495585 0.022918 -0.002439
v 0.490335 0.017887 -0.002439
v 0.483492 0.014026 -0.002439
v 0.475525 0.011599 -0.002439
v 0.466974 0.010771 0.002439
v 0.500011 0.035065 0.002439
v 0.475525 0.011599 0.002439
v 0.483492 0.014026 0.002439
v 0.490335 0.017887 0.002439
v 0.495585 0.022918 0.002439
v 0.498885 0.028777 0.002439
v -0.500011 0.035065 0.002439
v -0.466974 0.010771 0.002439
v -0.498885 0.028777 0.002439
v -0.495585 0.022918 0.002439
v -0.490335 0.017887 0.002439
v -0.483492 0.014026 0.002439
v -0.475525 0.011599 0.002439
v -0.500011 0.721851 -0.002439
v -0.466974 0.746145 -0.002439
v -0.498885 0.728139 -0.002439
v -0.495585 0.733998 -0.002439
v -0.490335 0.739030 -0.002439
v -0.483492 0.742890 -0.002439
v -0.475525 0.745317 -0.002439
v 0.466974 0.746145 -0.002439
v 0.500011 0.721851 -0.002439
v 0.475525 0.745317 -0.002439
v 0.483492 0.742890 -0.002439
v 0.490335 0.739030 -0.002439
v 0.495585 0.733998 -0.002439
v 0.498885 0.728139 -0.002439
v 0.500011 0.721851 0.002439
v 0.466974 0.746145 0.002439
v 0.498885 0.728139 0.002439
v 0.495585 0.733998 0.002439
v 0.490335 0.739030 0.002439
v 0.483492 0.742890 0.002439
v 0.475525 0.745317 0.002439
v -0.466974 0.746145 0.002439
v -0.500011 0.721851 0.002439
v -0.475525 0.745317 0.002439
v -0.483492 0.742890 0.002439
v -0.490335 0.739030 0.002439
v -0.495585 0.733998 0.002439
v -0.498885 0.728139 0.002439
v -0.281585 -0.001051 -0.021899
v -0.281585 0.745699 -0.021899
v -0.262277 0.745699 -0.021899
v -0.262277 -0.001051 -0.021899
v 0.262277 -0.001051 -0.021899
v 0.262277 0.745699 -0.021899
v 0.281584 0.745699 -0.021899
v 0.281584 -0.001051 -0.021899
v 0.475525 0.745317 -0.002439
v 0.466974 0.746145 -0.002439
v 0.466974 0.746145 0.002439
v 0.475525 0.745317 0.002439
v 0.483492 0.742890 -0.002439
v 0.483492 0.742890 0.002439
v 0.490335 0.739030 -0.002439
v 0.490335 0.739030 0.002439
v 0.495585 0.733998 -0.002439
v 0.495585 0.733998 0.002439
v 0.498885 0.728139 -0.002439
v 0.498885 0.728139 0.002439
v 0.500011 0.721851 -0.002439
v 0.500011 0.721851 0.002439
v 0.475525 0.011599 0.002439
v 0.466974 0.010771 0.002439
v 0.466974 0.010771 -0.002439
v 0.475525 0.011599 -0.002439
v 0.483492 0.014026 0.002439
v 0.483492 0.014026 -0.002439
v 0.490335 0.017887 0.002439
v 0.490335 0.017887 -0.002439
v 0.495585 0.022918 0.002439
v 0.495585 0.022918 -0.002439
v 0.498885 0.028777 0.002439
v 0.498885 0.028777 -0.002439
v 0.500011 0.035065 0.002439
v 0.500011 0.035065 -0.002439
v -0.475525 0.745317 0.002439
v -0.466974 0.746145 0.002439
v -0.466974 0.746145 -0.002439
v -0.475525 0.745317 -0.002439
v -0.483492 0.742890 0.002439
v -0.483492 0.742890 -0.002439
v -0.490335 0.739030 0.002439
v -0.490335 0.739030 -0.002439
v -0.495585 0.733998 0.002439
v -0.495585 0.733998 -0.002439
v -0.498885 0.728139 0.002439
v -0.498885 0.728139 -0.002439
v -0.500011 0.721851 0.002439
v -0.500011 0.721851 -0.002439
v -0.475525 0.011599 -0.002439
v -0.466974 0.010771 -0.002439
v -0.466974 0.010771 0.002439
v -0.475525 0.011599 0.002439
v -0.483492 0.014026 -0.002439
v -0.483492 0.014026 0.002439
v -0.490335 0.017887 -0.002439
v -0.490335 0.017887 0.002439
v -0.495585 0.022918 -0.002439
v -0.495585 0.022918 0.002439
v -0.498885 0.028777 -0.002439
v -0.498885 0.028777 0.002439
v -0.500011 0.035065 -0.002439
v -0.500011 0.035065 0.002439
vt 0.939132 0.991442
vt 0.939130 0.031312
vt 0.963952 0.031312
vt 0.914307 0.991442
vt 0.914307 0.031312
vt 0.963957 0.991442
vt 0.988774 0.031312
vt 0.924153 0.019704
vt 0.924153 0.024531
vt 0.000000 0.024531
vt 0.867870 0.339962
vt 0.867899 0.999964
vt 0.029647 0.339998
vt 0.924153 0.014645
vt 0.924153 0.019472
vt 0.000000 0.019472
vt 0.679481 0.004908
vt 0.000001 0.004831
vt 0.000001 0.000000
vt 0.679481 0.009970
vt 0.000000 0.009893
vt 0.000001 0.005062
vt 0.927112 0.013273
vt 0.935613 0.013273
vt 0.935613 0.018100
vt 0.943856 0.013273
vt 0.943856 0.018100
vt 0.951630 0.013273
vt 0.951630 0.018100
vt 0.958827 0.013273
vt 0.958827 0.018100
vt 0.965482 0.013273
vt 0.971803 0.013273
vt 0.971803 0.018100
vt 0.927112 0.008215
vt 0.935613 0.008215
vt 0.935613 0.013042
vt 0.943856 0.008215
vt 0.943856 0.013042
vt 0.951630 0.008215
vt 0.958827 0.008215
vt 0.958827 0.013042
vt 0.965482 0.008215
vt 0.965482 0.013042
vt 0.971803 0.008215
vt 0.971803 0.013042
vt 0.971803 0.007983
vt 0.963302 0.007983
vt 0.963302 0.003156
vt 0.955059 0.007983
vt 0.955059 0.003156
vt 0.947284 0.007983
vt 0.947284 0.003156
vt 0.940088 0.007984
vt 0.940088 0.003156
vt 0.933433 0.007984
vt 0.927112 0.007984
vt 0.927112 0.003156
vt 0.971803 0.023159
vt 0.963301 0.023159
vt 0.963301 0.018331
vt 0.955059 0.023159
vt 0.955059 0.018332
vt 0.947284 0.023159
vt 0.940088 0.023159
vt 0.940088 0.018332
vt 0.933433 0.023159
vt 0.933433 0.018332
vt 0.927112 0.023159
vt 0.927112 0.018331
vt 0.026840 0.333727
vt 0.026982 0.029883
vt 0.412732 0.333907
vt 0.988782 0.991442
vt 0.000000 0.019703
vt 0.897522 0.361765
vt 0.897555 0.978155
vt 0.893549 0.350863
vt 0.896512 0.356122
vt 0.882696 0.342883
vt 0.888837 0.346348
vt 0.875545 0.340705
vt 0.000000 0.361800
vt 0.021974 0.340741
vt 0.008683 0.346384
vt 0.014823 0.342919
vt 0.001010 0.356158
vt 0.003972 0.350899
vt 0.000012 0.978149
vt 0.004001 0.989099
vt 0.001029 0.983823
vt 0.014856 0.997081
vt 0.008716 0.993617
vt 0.022003 0.999257
vt 0.875570 0.999222
vt 0.888870 0.993575
vt 0.882728 0.997041
vt 0.896544 0.983799
vt 0.893582 0.989058
vt 0.029676 1.000000
vt 0.000000 0.014643
vt 0.679481 0.000082
vt 0.679482 0.005144
vt 0.927112 0.018100
vt 0.965482 0.018100
vt 0.927112 0.013042
vt 0.951630 0.013042
vt 0.971803 0.003156
vt 0.933433 0.003156
vt 0.971803 0.018331
vt 0.947284 0.018331
vt 0.013195 0.323683
vt 0.013324 0.039916
vt 0.015021 0.328703
vt 0.013659 0.326281
vt 0.020016 0.332379
vt 0.017190 0.330782
vt 0.023308 0.333383
vt 0.426386 0.323876
vt 0.416265 0.333566
vt 0.422385 0.330972
vt 0.419557 0.332565
vt 0.425919 0.326474
vt 0.424555 0.328894
vt 0.426524 0.040129
vt 0.424691 0.035087
vt 0.426058 0.037517
vt 0.419695 0.031410
vt 0.422521 0.033006
vt 0.416405 0.030406
vt 0.023450 0.030223
vt 0.017326 0.032819
vt 0.020154 0.031225
vt 0.013790 0.037318
vt 0.015155 0.034898
vt 0.412873 0.030063
vn 0.000000 0.000000 -1.000000
vn 1.000000 0.000000 0.000000
vn -1.000000 0.000000 0.000000
vn 0.048200 -0.998800 0.000000
vn -0.048200 -0.998800 0.000000
vn -0.000000 -0.000000 1.000000
vn 0.048200 0.998800 0.000000
vn -0.048200 0.998800 0.000000
vn 0.996100 0.088500 0.000000
vn 0.996100 -0.088500 0.000000
vn -0.996100 0.088500 0.000000
vn -0.996100 -0.088500 0.000000
vn 0.194800 0.980800 0.000000
vn 0.393700 0.919200 0.000000
vn 0.596300 0.802700 0.000000
vn 0.790100 0.613000 0.000000
vn 0.941100 0.338300 0.000000
vn 0.194800 -0.980800 0.000000
vn 0.393700 -0.919200 0.000000
vn 0.596300 -0.802700 0.000000
vn 0.790100 -0.613000 0.000000
vn 0.941100 -0.338300 0.000000
vn -0.194800 0.980800 0.000000
vn -0.393700 0.919200 0.000000
vn -0.596300 0.802700 0.000000
vn -0.790100 0.613000 0.000000
vn -0.941100 0.338300 0.000000
vn -0.194800 -0.980800 0.000000
vn -0.393700 -0.919200 0.000000
vn -0.596300 -0.802700 0.000000
vn -0.790100 -0.613000 0.000000
vn -0.941100 -0.338300 0.000000
s 1
f 6/1/1 2/2/1 1/3/1
f 7/4/2 3/5/2 76/2/2
f 74/6/3 73/3/3 4/7/3
f 14/1/1 10/2/1 9/3/1
f 15/4/2 11/5/2 80/2/2
f 78/6/3 77/3/3 12/7/3
f 25/8/4 96/9/4 39/10/5
f 31/11/6 83/12/6 125/13/6
f 60/14/7 52/15/7 46/16/8
f 94/17/9 107/18/10 24/19/10
f 45/20/11 18/21/12 136/22/12
f 60/23/7 84/24/13 54/25/13
f 84/24/13 86/26/14 55/27/14
f 86/26/14 88/28/15 56/29/15
f 56/29/15 88/28/15 90/30/16
f 57/31/16 90/30/16 92/32/17
f 92/32/17 94/33/9 53/34/9
f 25/35/4 30/36/18 95/37/18
f 30/36/18 29/38/19 99/39/19
f 99/39/19 29/38/19 28/40/20
f 28/40/20 27/41/21 103/42/21
f 27/41/21 26/43/22 105/44/22
f 26/43/22 24/45/10 107/46/10
f 46/47/8 51/48/23 109/49/23
f 51/48/23 50/50/24 113/51/24
f 50/50/24 49/52/25 115/53/25
f 115/53/25 49/52/25 48/54/26
f 117/55/26 48/54/26 47/56/27
f 47/56/27 45/57/11 121/58/11
f 39/59/5 126/60/28 19/61/28
f 126/60/28 128/62/29 20/63/29
f 20/63/29 128/62/29 130/64/30
f 130/64/30 132/65/31 22/66/31
f 132/65/31 134/67/32 23/68/32
f 134/67/32 136/69/12 18/70/12
f 124/71/1 111/72/1 97/73/1
f 5/6/1 6/1/1 1/3/1
f 75/1/2 7/4/2 76/2/2
f 8/74/3 74/6/3 4/7/3
f 13/6/1 14/1/1 9/3/1
f 79/1/2 15/4/2 80/2/2
f 16/74/3 78/6/3 12/7/3
f 17/75/5 25/8/4 39/10/5
f 31/11/6 32/76/6 59/77/6
f 32/76/6 36/78/6 37/79/6
f 32/76/6 34/80/6 35/81/6
f 32/76/6 31/11/6 33/82/6
f 38/83/6 44/84/6 125/13/6
f 38/83/6 42/85/6 43/86/6
f 38/83/6 40/87/6 41/88/6
f 125/13/6 67/89/6 38/83/6
f 67/89/6 71/90/6 72/91/6
f 67/89/6 69/92/6 70/93/6
f 69/92/6 67/89/6 68/94/6
f 59/77/6 65/95/6 83/12/6
f 59/77/6 63/96/6 64/97/6
f 59/77/6 61/98/6 62/99/6
f 33/82/6 34/80/6 32/76/6
f 36/78/6 32/76/6 35/81/6
f 38/83/6 43/86/6 44/84/6
f 42/85/6 38/83/6 41/88/6
f 67/89/6 70/93/6 71/90/6
f 125/13/6 83/12/6 66/100/6
f 59/77/6 62/99/6 63/96/6
f 83/12/6 31/11/6 59/77/6
f 66/100/6 67/89/6 125/13/6
f 67/89/6 66/100/6 68/94/6
f 65/95/6 59/77/6 64/97/6
f 110/101/8 60/14/7 46/16/8
f 53/102/9 94/17/9 24/19/10
f 121/103/11 45/20/11 136/22/12
f 52/104/7 60/23/7 54/25/13
f 54/25/13 84/24/13 55/27/14
f 55/27/14 86/26/14 56/29/15
f 57/31/16 56/29/15 90/30/16
f 58/105/17 57/31/16 92/32/17
f 58/105/17 92/32/17 53/34/9
f 96/106/4 25/35/4 95/37/18
f 95/37/18 30/36/18 99/39/19
f 101/107/20 99/39/19 28/40/20
f 101/107/20 28/40/20 103/42/21
f 103/42/21 27/41/21 105/44/22
f 105/44/22 26/43/22 107/46/10
f 110/108/8 46/47/8 109/49/23
f 109/49/23 51/48/23 113/51/24
f 113/51/24 50/50/24 115/53/25
f 117/55/26 115/53/25 48/54/26
f 119/109/27 117/55/26 47/56/27
f 119/109/27 47/56/27 121/58/11
f 17/110/5 39/59/5 19/61/28
f 19/61/28 126/60/28 20/63/29
f 21/111/30 20/63/29 130/64/30
f 21/111/30 130/64/30 22/66/31
f 22/66/31 132/65/31 23/68/32
f 23/68/32 134/67/32 18/70/12
f 124/71/1 135/112/1 122/113/1
f 135/112/1 131/114/1 133/115/1
f 135/112/1 127/116/1 129/117/1
f 135/112/1 124/71/1 123/118/1
f 108/119/1 98/120/1 97/73/1
f 108/119/1 102/121/1 100/122/1
f 108/119/1 106/123/1 104/124/1
f 97/73/1 93/125/1 108/119/1
f 93/125/1 89/126/1 91/127/1
f 93/125/1 85/128/1 87/129/1
f 85/128/1 93/125/1 81/130/1
f 122/113/1 112/131/1 111/72/1
f 122/113/1 116/132/1 114/133/1
f 122/113/1 120/134/1 118/135/1
f 123/118/1 127/116/1 135/112/1
f 131/114/1 135/112/1 129/117/1
f 108/119/1 100/122/1 98/120/1
f 102/121/1 108/119/1 104/124/1
f 93/125/1 87/129/1 89/126/1
f 97/73/1 111/72/1 82/136/1
f 122/113/1 118/135/1 116/132/1
f 111/72/1 124/71/1 122/113/1
f 82/136/1 93/125/1 97/73/1
f 93/125/1 82/136/1 81/130/1
f 112/131/1 122/113/1 114/133/1
